<?xml version="1.0" encoding="utf-8"?>
<!-- Generator: Adobe Illustrator 16.0.0, SVG Export Plug-In . SVG Version: 6.00 Build 0)  -->
<!DOCTYPE svg PUBLIC "-//W3C//DTD SVG 1.1//EN" "http://www.w3.org/Graphics/SVG/1.1/DTD/svg11.dtd">
<svg version="1.1" id="Camada_1" xmlns="http://www.w3.org/2000/svg" xmlns:xlink="http://www.w3.org/1999/xlink" x="0px" y="0px"
	 width="79.521px" height="52.466px" viewBox="0 0 79.521 52.466" enable-background="new 0 0 79.521 52.466" xml:space="preserve">
<g>
	<polygon fill="#E2AC32" points="66.918,0 12.909,0 0,12.663 39.451,52.466 79.521,12.663 	"/>
	<g>
		<path fill="#010002" d="M24.657,21.15c0-8.672,6.651-14.524,15.45-14.524c7.367,0,11.072,4.294,12.756,8.167l-7.325,3.41
			c-0.715-2.189-2.904-4.083-5.431-4.083c-4.083,0-6.819,3.115-6.819,7.03c0,3.916,2.736,7.031,6.819,7.031
			c2.526,0,4.716-1.895,5.431-4.084l7.325,3.368c-1.642,3.747-5.389,8.209-12.756,8.209C31.309,35.675,24.657,29.781,24.657,21.15z"
			/>
	</g>
</g>
</svg>
