<?xml version="1.0" encoding="utf-8"?>
<!-- Generator: Adobe Illustrator 16.0.0, SVG Export Plug-In . SVG Version: 6.00 Build 0)  -->
<!DOCTYPE svg PUBLIC "-//W3C//DTD SVG 1.1//EN" "http://www.w3.org/Graphics/SVG/1.1/DTD/svg11.dtd">
<svg version="1.1" id="Camada_1" xmlns="http://www.w3.org/2000/svg" xmlns:xlink="http://www.w3.org/1999/xlink" x="0px" y="0px"
	 width="270.08px" height="182.34px" viewBox="0 0 270.08 182.34" enable-background="new 0 0 270.08 182.34" xml:space="preserve">
<g>
	<path fill="#211915" d="M262.94,40.53l-38.3-37.87L221.72,0H49.41L46.5,2.57L7.27,40.43L0,47.41l7.14,7.16L127.02,175.26l7.04,7.08
		l7.1-7.03L262.92,54.72l7.16-7.09L262.94,40.53z M14.23,47.74L53.46,10h164.13l38.3,37.86l-0.03,0.029l0.03,0.03l-121.77,120.4
		L14.23,47.8l0.03-0.03L14.23,47.74z"/>
	<polygon fill="#E2AC32" points="255.86,47.89 255.89,47.92 134.12,168.32 14.23,47.8 14.26,47.77 14.23,47.74 53.46,10 217.59,10 
		255.89,47.86 	"/>
	<path fill="#211915" d="M255.86,47.89L134.12,168.32l121.77-120.4L255.86,47.89z M14.26,47.77L53.46,10L14.23,47.74L14.26,47.77z"
		/>
	<path fill="#FFFFFF" d="M255.86,47.89L217.59,10H53.46L14.23,47.74l0.03,0.029L134.12,168.32l121.77-120.4L255.86,47.89z
		 M21.35,47.87L55.48,15h160.05l33.26,32.85L134.15,161.26L21.35,47.87z"/>
	<g>
		<path fill="#010002" d="M89.162,72.788c0-26.354,20.213-44.136,46.952-44.136c22.388,0,33.647,13.046,38.764,24.816
			l-22.261,10.362c-2.172-6.653-8.826-12.407-16.503-12.407c-12.408,0-20.723,9.467-20.723,21.364
			c0,11.899,8.315,21.367,20.723,21.367c7.677,0,14.331-5.758,16.503-12.411l22.261,10.232
			c-4.989,11.387-16.376,24.949-38.764,24.949C109.375,116.926,89.162,99.016,89.162,72.788z"/>
	</g>
</g>
</svg>
